<?xml version="1.0" standalone="no"?>
<!DOCTYPE svg PUBLIC "-//W3C//DTD SVG 20010904//EN"
 "http://www.w3.org/TR/2001/REC-SVG-20010904/DTD/svg10.dtd">
<svg version="1.0" xmlns="http://www.w3.org/2000/svg"
 width="544.000000pt" height="544.000000pt" viewBox="0 0 544.000000 544.000000"
 preserveAspectRatio="xMidYMid meet">
<metadata>
Created by potrace 1.11, written by Peter Selinger 2001-2013
</metadata>
<g transform="translate(0.000000,544.000000) scale(0.100000,-0.100000)"
fill="#000000" stroke="none">
<path d="M1146 5413 c2 -16 6 -125 8 -244 2 -119 6 -222 10 -228 4 -6 2 -11
-4 -11 -6 0 -8 -5 -5 -10 4 -6 9 -102 11 -213 2 -111 6 -296 9 -412 3 -115 7
-290 8 -387 l4 -178 -54 0 c-34 0 -52 4 -48 10 3 6 1 10 -4 10 -6 0 -11 5 -11
11 0 12 -61 102 -72 107 -5 2 -8 8 -8 13 0 17 -83 99 -127 125 -41 25 -81 28
-123 10 -21 -9 -51 -53 -53 -76 -1 -11 -6 -20 -12 -20 -6 0 -7 -3 0 -8 6 -4
11 -24 12 -45 1 -22 5 -46 9 -55 4 -10 8 -23 10 -31 1 -8 8 -17 15 -21 26 -17
1 -34 -52 -37 -30 -1 -68 -7 -83 -13 -15 -5 -32 -8 -37 -4 -5 3 -9 0 -9 -6 0
-6 -4 -9 -9 -5 -25 15 -134 -72 -157 -125 -10 -23 -11 -85 -1 -130 14 -66 99
-167 190 -224 31 -20 57 -33 57 -29 0 4 5 2 12 -5 7 -7 22 -12 34 -12 13 0 25
-4 28 -9 14 -23 226 -36 297 -19 42 11 96 41 111 62 9 13 21 2 24 -22 2 -9 4
-24 7 -32 2 -8 7 -31 11 -50 14 -64 18 -71 41 -80 19 -7 23 -16 22 -57 0 -26
3 -163 7 -303 9 -342 17 -676 19 -782 1 -47 5 -90 9 -93 4 -4 4 -15 -1 -24 -9
-19 -8 -97 1 -107 4 -3 3 -16 -2 -29 -5 -13 -6 -25 -3 -28 2 -3 7 -106 9 -229
3 -123 6 -254 7 -291 1 -38 0 -70 -3 -72 -3 -2 -26 -6 -50 -10 -25 -3 -58 -11
-73 -17 -15 -6 -30 -8 -34 -5 -3 4 -17 0 -32 -7 -14 -7 -34 -12 -43 -11 -10 2
-18 -1 -18 -6 0 -6 -6 -9 -12 -8 -7 1 -26 -3 -41 -9 -16 -7 -32 -12 -37 -12
-19 0 -86 -43 -112 -71 -47 -50 -27 -121 57 -201 41 -39 135 -108 165 -122 14
-6 31 -16 38 -23 8 -7 18 -11 23 -8 5 4 9 2 9 -4 0 -5 13 -12 30 -16 17 -4 30
-10 30 -14 0 -8 114 -40 170 -47 129 -16 272 4 335 49 57 41 102 98 110 138 7
36 19 41 46 19 13 -11 29 -23 34 -28 37 -31 140 -81 161 -80 28 3 70 55 116
144 39 75 70 128 77 134 3 3 19 31 35 63 16 33 44 83 62 112 17 30 30 56 28
58 -3 2 2 10 11 17 16 14 21 65 5 55 -6 -3 -10 -1 -10 4 0 6 -9 11 -19 11 -11
0 -26 6 -33 13 -7 6 -32 21 -55 32 -24 11 -43 23 -43 28 0 4 -5 7 -11 7 -20 0
-38 27 -32 49 3 11 9 21 12 21 4 0 8 6 8 13 0 6 12 38 27 69 l27 56 237 -4
c230 -5 238 -6 254 -27 10 -12 22 -27 26 -32 5 -6 7 -16 4 -23 -2 -6 1 -12 7
-12 6 0 11 -6 11 -13 0 -8 9 -24 20 -37 12 -13 18 -30 15 -38 -3 -7 -5 -18 -5
-23 0 -6 -4 -7 -10 -4 -5 3 -10 1 -10 -4 0 -6 -4 -11 -10 -11 -5 0 -18 -7 -27
-15 -116 -98 -121 -106 -96 -136 6 -8 31 -54 57 -104 58 -114 89 -169 99 -173
4 -2 7 -8 7 -13 0 -5 8 -21 17 -36 10 -14 18 -32 19 -39 3 -17 23 -37 52 -53
18 -10 27 -10 38 0 8 6 14 8 14 3 0 -5 4 -4 8 1 4 6 29 25 57 42 l50 32 27
-29 c15 -17 34 -30 42 -30 8 0 17 -13 21 -30 15 -70 176 -183 290 -205 17 -3
41 -8 55 -11 46 -9 145 -7 205 6 33 7 67 14 75 15 8 2 15 4 15 5 0 2 22 7 50
13 8 2 18 6 21 10 4 4 14 7 23 7 19 0 163 71 156 78 -2 2 7 13 21 24 29 23 53
68 47 86 -3 6 0 12 6 12 5 0 8 10 5 22 -3 13 -7 34 -10 48 -3 14 -9 27 -15 28
-5 2 -9 8 -9 13 0 15 -52 64 -99 94 -48 29 -171 77 -236 90 -22 5 -43 9 -47
10 -5 2 -17 3 -28 4 -11 0 -20 8 -20 16 0 17 -34 37 -45 27 -5 -4 -5 -2 -1 5
3 6 2 14 -4 18 -6 4 -8 10 -6 14 3 4 -2 17 -12 27 -9 10 -28 36 -42 56 -14 21
-28 38 -32 38 -5 0 -8 4 -8 10 0 9 -8 20 -58 78 -23 28 -25 59 -7 196 3 21 8
61 10 90 5 53 10 93 21 186 3 30 8 73 10 95 2 22 6 63 9 90 3 28 7 66 9 85 2
19 7 60 10 90 4 30 9 74 11 97 3 24 7 62 10 85 3 24 8 63 10 88 7 75 13 132
19 185 3 28 8 70 11 95 2 25 7 68 11 95 4 28 8 64 9 80 2 17 6 55 9 85 3 30 8
75 11 100 2 25 7 65 10 90 6 47 11 99 20 187 3 29 13 69 21 89 8 20 13 43 10
50 -7 18 9 18 26 0 9 -9 20 -11 34 -5 12 4 25 5 28 2 3 -3 11 -1 18 5 7 5 26
9 41 7 16 -2 45 3 65 12 20 8 48 17 62 19 14 3 32 7 40 11 34 14 82 11 112 -6
18 -10 43 -17 55 -16 12 1 20 -1 18 -5 -3 -4 4 -15 14 -24 18 -16 20 -16 34 4
20 28 12 76 -24 147 -16 31 -29 58 -29 60 0 2 8 3 19 3 10 0 24 6 31 14 10 13
16 12 46 -5 20 -11 39 -17 44 -14 5 3 11 1 14 -4 4 -5 32 -13 64 -17 31 -3 64
-10 72 -14 9 -5 23 -4 33 1 9 6 17 6 17 2 0 -4 11 -8 25 -8 14 0 25 2 25 5 0
3 8 6 18 6 34 2 85 15 113 30 16 8 29 11 29 8 0 -4 8 3 19 14 10 12 25 22 34
22 9 0 19 9 22 20 4 11 9 18 13 16 4 -2 13 2 20 10 7 8 11 14 8 14 -2 0 9 14
25 31 16 17 26 35 23 40 -3 5 -1 9 4 9 6 0 13 8 17 18 16 39 25 141 13 148 -4
3 -8 14 -8 24 0 25 -36 90 -60 111 -11 9 -16 19 -13 23 4 3 -1 6 -10 6 -9 0
-17 5 -17 10 0 6 -7 10 -15 10 -8 0 -15 3 -15 8 0 4 -19 16 -42 26 -45 19
-137 25 -199 13 -35 -7 -36 -6 -33 20 1 16 3 28 4 28 1 0 3 11 5 25 2 14 6 43
10 65 4 22 9 54 10 70 2 17 4 30 5 30 3 0 14 57 24 130 13 87 17 111 21 125 2
8 6 31 9 50 3 19 10 62 16 95 6 33 13 71 15 85 2 14 7 41 10 60 4 19 8 46 10
60 4 29 13 84 20 120 3 14 7 41 10 60 3 19 8 46 10 60 3 14 7 39 10 55 2 17 7
46 11 65 3 19 7 40 7 45 1 6 -10 11 -24 13 -22 3 -25 -1 -24 -20 1 -13 0 -27
-4 -33 -3 -5 -6 -19 -7 -30 -1 -11 -4 -29 -7 -40 -3 -11 -8 -40 -11 -65 -3
-25 -8 -55 -10 -66 -2 -12 -7 -37 -10 -55 -3 -19 -8 -45 -11 -59 -5 -25 -16
-93 -20 -120 -2 -18 -16 -97 -21 -125 -3 -11 -7 -36 -10 -55 -2 -19 -7 -46
-10 -60 -12 -64 -14 -76 -19 -110 -3 -20 -7 -47 -10 -60 -3 -13 -7 -42 -10
-65 -3 -22 -8 -47 -10 -55 -2 -8 -6 -31 -9 -50 -3 -19 -7 -44 -10 -55 -2 -11
-7 -45 -12 -75 -4 -30 -9 -58 -10 -62 -1 -5 -2 -12 -3 -18 0 -5 -17 -17 -37
-26 -20 -9 -38 -23 -41 -31 -10 -26 -19 -12 -20 35 -4 104 -85 184 -149 149
-51 -28 -96 -107 -100 -175 -3 -52 -8 -59 -29 -42 -8 7 -15 9 -15 5 0 -4 -6
-3 -12 1 -7 5 -24 9 -38 8 -24 0 -120 -26 -170 -45 -14 -5 -35 -11 -47 -14
-13 -3 -32 -7 -43 -9 -19 -5 -20 -1 -15 47 2 29 7 69 10 90 5 41 13 111 30
267 3 25 7 65 10 90 3 25 7 63 9 85 2 22 7 65 11 95 4 30 8 73 10 95 2 22 7
63 10 90 3 28 8 70 10 95 2 25 4 45 5 45 1 0 3 18 5 40 2 22 7 60 10 85 3 25
7 65 10 90 2 25 7 70 11 100 11 102 11 105 -13 108 -17 2 -23 -2 -24 -15 0
-10 -2 -27 -4 -38 -2 -11 -7 -47 -10 -80 -3 -33 -7 -73 -9 -90 -7 -55 -18
-150 -21 -180 -7 -59 -16 -151 -20 -185 -2 -19 -7 -60 -10 -90 -4 -30 -8 -68
-10 -85 -1 -16 -6 -59 -10 -95 -4 -36 -9 -83 -11 -105 -7 -64 -13 -117 -19
-165 -3 -25 -7 -70 -10 -100 -2 -30 -4 -55 -5 -55 -1 0 -4 -19 -6 -43 -2 -24
-6 -53 -8 -65 -3 -12 -5 -29 -5 -38 -1 -11 -21 -22 -63 -34 -35 -9 -72 -21
-83 -25 -17 -7 -103 -31 -127 -36 -5 -1 -9 -2 -10 -4 -8 -6 -162 -39 -166 -35
-2 2 -5 9 -6 17 -7 32 -27 69 -41 74 -8 3 -13 9 -11 13 2 3 -2 12 -10 19 -8 7
-14 10 -14 6 0 -18 -28 20 -33 45 -16 80 -102 194 -173 231 -16 8 -31 17 -34
20 -11 11 -70 41 -70 35 0 -3 -8 -1 -19 4 -10 6 -33 13 -51 16 -18 3 -37 8
-41 11 -9 5 -2 49 10 73 5 9 11 30 14 46 3 17 20 82 37 145 18 63 33 120 34
125 1 6 5 16 9 23 5 6 6 12 3 12 -3 0 1 18 9 40 8 22 14 42 15 45 0 3 0 6 1 8
0 1 2 9 4 17 7 35 47 177 55 200 5 14 12 39 15 55 3 17 13 58 24 92 10 34 16
64 13 67 -3 3 0 6 7 6 7 0 10 4 7 9 -4 5 -1 22 5 38 20 52 19 73 -6 73 -20 0
-26 -15 -70 -172 -26 -95 -48 -180 -50 -188 -1 -8 -5 -22 -8 -30 -3 -8 -9 -28
-13 -45 -4 -16 -8 -34 -10 -40 -1 -5 -12 -45 -24 -87 -11 -43 -23 -85 -25 -95
-2 -10 -23 -83 -45 -163 -23 -80 -43 -154 -46 -165 -3 -11 -6 -24 -8 -30 -12
-49 -16 -52 -74 -58 -32 -4 -71 -13 -87 -21 -27 -14 -30 -14 -44 7 -8 12 -18
24 -21 27 -16 12 -16 36 0 50 33 29 53 84 56 152 2 38 -1 68 -7 68 -5 0 -8 3
-7 8 5 14 -43 112 -54 112 -6 0 -8 3 -5 7 7 7 -120 133 -134 133 -8 0 -36 20
-66 49 -15 14 -139 65 -189 77 -38 9 -217 9 -269 0 -172 -30 -393 -118 -395
-158 0 -8 37 -21 70 -22 62 -4 179 -65 180 -93 0 -7 5 -13 11 -13 14 0 42 -31
72 -80 23 -37 49 -70 84 -107 12 -13 20 -23 17 -23 -5 0 71 -75 110 -108 65
-55 183 -102 255 -102 20 0 61 7 91 16 101 30 112 29 142 -12 l27 -36 -30 -26
c-17 -14 -43 -38 -59 -54 -16 -15 -35 -28 -42 -28 -8 0 -32 -24 -53 -52 -22
-29 -43 -54 -47 -56 -5 -2 -8 -8 -8 -14 0 -6 -11 -19 -24 -29 -13 -11 -62 -51
-108 -90 -128 -109 -133 -112 -135 -108 -1 2 -13 -5 -25 -16 -13 -10 -25 -18
-27 -16 -2 1 -7 -1 -10 -6 -3 -4 -21 -19 -40 -32 -32 -23 -42 -24 -235 -27
-110 -3 -235 -5 -276 -7 l-75 -2 -2 105 c-2 101 -6 274 -19 765 -3 127 -6 269
-6 318 0 48 -5 90 -9 93 -5 3 -6 11 -2 17 10 17 11 130 1 144 -5 6 -5 14 2 18
5 3 7 14 2 23 -4 9 -7 63 -7 120 l1 102 -27 0 c-24 0 -27 -3 -23 -27z m3077
-1180 c-7 -2 -21 -2 -30 0 -10 3 -4 5 12 5 17 0 24 -2 18 -5z m360 -110 c-7
-2 -19 -2 -25 0 -7 3 -2 5 12 5 14 0 19 -2 13 -5z m64 1 c-3 -3 -12 -4 -19 -1
-8 3 -5 6 6 6 11 1 17 -2 13 -5z m-1062 -813 c-2 -14 -6 -45 -20 -191 -2 -19
-6 -55 -10 -80 -3 -25 -7 -66 -10 -91 -3 -25 -7 -65 -10 -87 -3 -23 -8 -67
-10 -99 -3 -32 -8 -74 -10 -93 -2 -19 -6 -53 -9 -75 -2 -22 -7 -67 -11 -99 -4
-32 -9 -80 -11 -105 -1 -25 -3 -46 -4 -46 -1 0 -9 -65 -15 -130 -2 -22 -4 -40
-5 -40 -1 0 -4 -18 -5 -40 -2 -22 -6 -65 -10 -95 -7 -62 -12 -105 -19 -170 -6
-61 -18 -170 -21 -200 -12 -92 -17 -141 -20 -180 -7 -81 -17 -165 -20 -168 -4
-4 -91 92 -115 128 -8 12 -21 28 -27 35 -8 8 -9 15 -3 17 12 4 22 48 11 48 -4
0 -8 10 -8 23 -1 12 -4 40 -7 62 -3 22 -7 66 -10 97 -2 31 -8 63 -12 69 -5 8
-3 9 6 4 9 -6 11 -4 5 5 -5 8 -9 32 -11 54 -3 61 -14 197 -19 235 -2 18 -5 51
-7 72 -1 21 -4 39 -7 39 -4 0 -7 24 -8 53 -2 53 -6 99 -17 184 -4 27 -9 72
-11 101 -2 29 -7 58 -11 64 -5 7 -2 8 6 3 9 -5 11 -4 6 4 -4 6 -10 38 -12 69
-3 31 -6 73 -9 92 -2 19 -7 67 -11 105 -3 39 -7 79 -8 89 -2 11 4 27 13 36 14
15 20 15 43 4 14 -8 41 -29 60 -48 18 -19 40 -36 48 -37 26 -4 71 13 67 25 -2
6 0 21 4 33 5 13 4 25 -2 29 -8 5 -24 34 -34 64 -1 3 -4 12 -8 20 -14 37 -27
88 -29 118 -1 17 -5 32 -8 32 -3 0 -6 11 -6 25 0 23 2 24 21 11 11 -7 36 -11
55 -9 19 1 48 4 63 6 16 1 34 10 41 19 8 11 23 16 42 14 33 -4 84 11 84 25 0
5 11 4 24 -2 14 -7 23 -18 21 -28z m-1725 -278 c19 -3 44 -11 55 -18 22 -14
65 -4 65 15 0 6 4 9 9 6 5 -3 4 -29 -2 -58 -5 -29 -10 -65 -11 -80 -1 -16 -4
-28 -7 -28 -3 0 -6 -6 -6 -12 0 -7 -4 -26 -7 -43 -7 -29 -14 -71 -21 -110 -2
-11 -4 -20 -5 -20 -1 0 -3 -11 -5 -25 -2 -14 -6 -36 -9 -50 -8 -32 -15 -63
-22 -97 -3 -16 -17 -84 -30 -153 -14 -69 -28 -135 -30 -147 -2 -13 -7 -35 -10
-50 -6 -32 -20 -103 -29 -148 -3 -16 -10 -50 -15 -75 -6 -25 -12 -55 -15 -68
-2 -12 -7 -28 -12 -35 -4 -6 -8 -16 -8 -22 -1 -5 -5 -19 -9 -30 -14 -35 -19
-50 -21 -61 -2 -6 -13 -33 -25 -60 -33 -72 -33 -81 -1 -100 l29 -17 -21 -18
c-12 -10 -19 -18 -15 -19 3 0 -7 -15 -24 -34 -16 -19 -30 -38 -31 -43 0 -4 -6
-12 -13 -18 -7 -5 -14 -17 -16 -25 -2 -8 -7 -20 -13 -26 -25 -29 -40 -51 -42
-61 -1 -6 -16 -26 -33 -44 -16 -19 -30 -40 -30 -48 0 -8 -3 -12 -6 -8 -6 6
-34 -16 -34 -27 0 -3 -26 -32 -57 -63 -32 -32 -59 -63 -60 -68 -2 -15 -20 -17
-21 -3 -2 30 -15 555 -16 690 0 82 -3 148 -6 148 -3 0 -6 82 -6 183 -1 100 -5
301 -9 447 -13 506 -13 500 4 510 9 4 121 8 249 7 170 0 236 3 245 12 7 7 22
10 37 6 14 -4 41 -9 60 -12z"/>
</g>
</svg>
